<?xml version="1.0" standalone="no"?>
<!DOCTYPE svg PUBLIC "-//W3C//DTD SVG 20010904//EN"
 "http://www.w3.org/TR/2001/REC-SVG-20010904/DTD/svg10.dtd">
<svg version="1.0" xmlns="http://www.w3.org/2000/svg"
 width="200.000000pt" height="200.000000pt" viewBox="0 0 200.000000 200.000000"
 preserveAspectRatio="xMidYMid meet">
<metadata>
Created by potrace 1.11, written by Peter Selinger 2001-2013
</metadata>
<g transform="translate(0.000000,200.000000) scale(0.100000,-0.100000)"
fill="#000000" stroke="none">
<path d="M880 1710 c-6 -11 -9 -24 -6 -29 8 -12 -182 -185 -208 -189 -27 -5
-56 -31 -56 -51 0 -9 7 -26 15 -38 14 -19 11 -29 -34 -129 -41 -89 -55 -109
-80 -120 -25 -10 -31 -19 -31 -42 0 -16 7 -35 15 -42 10 -9 13 -25 10 -54 -2
-22 -7 -76 -10 -119 -4 -58 -11 -87 -27 -107 -20 -28 -20 -30 -4 -54 20 -31
58 -34 83 -7 17 18 36 20 221 24 151 3 204 1 210 -8 14 -23 45 -33 68 -23 19
9 43 3 129 -32 58 -23 108 -46 111 -51 17 -29 84 17 84 58 0 27 95 229 113
240 11 7 44 50 50 66 4 9 -36 47 -50 47 -7 0 -13 10 -13 23 -1 12 -3 38 -5 57
-19 137 -20 176 -8 200 15 31 -1 61 -39 71 -24 6 -55 36 -123 117 -21 25 -25
36 -16 45 21 21 13 65 -15 83 -22 15 -31 16 -60 5 -30 -11 -47 -9 -137 14 -60
16 -109 34 -120 46 -23 25 -53 24 -67 -1z m208 -82 c61 -17 82 -27 82 -39 0
-19 -128 -175 -142 -173 -4 1 -14 2 -21 3 -11 1 -67 193 -67 231 0 15 25 11
148 -22z m-140 -234 c-14 -15 -24 -13 -117 17 -122 41 -132 55 -75 107 22 20
64 59 94 86 l54 51 30 -123 c28 -112 29 -123 14 -138z m354 70 c35 -41 63 -80
63 -86 0 -15 -292 -19 -304 -4 -6 7 16 41 59 92 86 101 94 101 182 -2z m-361
-136 c9 -16 2 -32 -42 -96 -65 -97 -72 -104 -90 -97 -17 6 -103 250 -95 270 7
20 212 -49 227 -77z m-216 -72 c37 -104 37 -110 22 -135 -9 -14 -20 -25 -24
-25 -5 1 -30 5 -58 8 -99 13 -109 27 -72 108 13 29 37 81 52 116 18 41 31 59
36 50 3 -7 24 -62 44 -122z m645 70 c0 -24 -130 -236 -145 -236 -11 0 -115
136 -159 208 -20 32 0 37 153 40 126 2 151 0 151 -12z m46 -44 c22 -154 25
-246 11 -264 -13 -17 -17 -17 -73 2 -96 33 -97 42 -17 175 37 62 70 112 72
109 3 -2 6 -12 7 -22z m-308 -98 c40 -58 71 -112 68 -120 -3 -9 -15 -12 -33
-9 -15 2 -68 9 -118 15 -128 15 -169 21 -177 26 -4 2 23 47 59 99 59 86 69 95
97 95 28 0 38 -10 104 -106z m-433 -109 c59 -9 75 -15 75 -28 -1 -20 -206
-231 -217 -224 -7 4 -9 29 -7 59 2 29 6 78 8 109 4 70 27 100 71 94 17 -3 48
-7 70 -10z m340 -35 c50 -6 103 -13 119 -15 16 -2 32 -7 37 -12 13 -13 -110
-193 -132 -193 -23 0 -199 208 -192 227 4 10 16 13 42 9 20 -3 77 -10 126 -16z
m-110 -129 c57 -68 83 -107 77 -113 -6 -6 -98 -12 -212 -14 -164 -2 -201 -1
-198 10 2 8 46 60 98 116 52 56 96 106 98 110 9 24 60 -17 137 -109z m452 78
c92 -34 91 -32 40 -142 -39 -83 -48 -95 -66 -90 -12 3 -21 6 -21 8 0 1 -11 48
-25 103 -21 85 -23 105 -13 122 16 25 14 25 85 -1z m-127 -24 c0 -1 11 -48 25
-104 23 -92 24 -103 10 -124 -8 -13 -12 -27 -8 -30 15 -15 -27 -5 -99 24 -60
24 -78 36 -78 51 0 31 118 198 135 192 8 -4 15 -7 15 -9z"/>
<path d="M465 533 c-43 -21 -68 -59 -73 -113 -8 -87 31 -154 100 -169 41 -9
118 6 118 23 0 21 -10 25 -43 15 -98 -28 -166 63 -123 166 19 45 48 59 107 52
35 -4 49 -2 53 8 3 8 0 17 -6 21 -21 13 -104 11 -133 -3z"/>
<path d="M1760 538 c-13 -7 -31 -25 -39 -39 -24 -44 -1 -83 66 -111 61 -25 79
-47 63 -78 -6 -11 -14 -21 -18 -21 -31 -6 -60 -5 -85 2 -21 6 -29 4 -34 -8 -9
-22 10 -29 77 -32 52 -2 63 1 85 23 30 30 33 78 6 105 -11 11 -40 28 -64 39
-89 39 -79 99 14 90 34 -4 50 -1 53 8 7 18 -5 24 -56 30 -25 3 -53 -1 -68 -8z"/>
<path d="M195 498 c-57 -138 -92 -239 -85 -243 17 -10 39 7 45 35 7 33 18 37
91 38 51 1 52 1 67 -38 11 -28 21 -40 36 -40 24 0 22 9 -47 178 -39 95 -49
112 -68 112 -16 0 -26 -11 -39 -42z m81 -114 c6 -23 4 -24 -44 -24 l-51 0 13
38 c8 20 20 50 27 66 l13 28 18 -42 c10 -23 21 -53 24 -66z"/>
<path d="M655 400 c0 -77 2 -140 5 -141 3 0 13 -2 22 -4 15 -3 17 5 17 55 -1
32 2 63 5 68 3 5 34 9 68 8 l63 -1 2 -45 c0 -25 2 -55 2 -67 1 -15 7 -21 20
-20 18 1 19 11 20 144 1 137 1 143 -19 143 -11 0 -20 -3 -21 -7 0 -5 -1 -32
-2 -61 l-1 -52 -68 1 -68 2 -1 31 c-1 17 0 43 1 59 1 22 -3 27 -22 27 -23 0
-23 0 -23 -140z"/>
<path d="M950 396 c0 -139 1 -145 20 -143 19 1 20 8 20 144 0 136 -1 143 -20
143 -19 0 -20 -7 -20 -144z"/>
<path d="M1060 396 l0 -144 83 1 c76 1 103 10 91 29 -3 4 -34 8 -70 8 l-64 0
0 125 c0 118 -1 125 -20 125 -19 0 -20 -7 -20 -144z"/>
<path d="M1275 398 l1 -143 87 -1 c78 0 87 2 87 18 0 16 -9 18 -65 18 -45 0
-65 4 -66 13 -1 6 -1 63 -1 125 0 108 -1 112 -22 112 -21 0 -21 -3 -21 -142z"/>
<path d="M1490 397 l0 -143 94 0 c85 0 94 2 93 18 -1 16 -11 18 -75 18 l-73 0
3 48 3 47 55 1 c42 1 56 5 58 17 3 13 -8 17 -55 19 l-58 3 0 40 0 40 55 1 c78
2 80 2 80 19 0 12 -17 15 -90 15 l-90 0 0 -143z"/>
</g>
</svg>
